<svg xmlns="http://www.w3.org/2000/svg" xmlns:xlink="http://www.w3.org/1999/xlink" preserveAspectRatio="xMidYMid" width="30" height="30" viewBox="0 0 30 30">
  <defs>
    <style>
      .cls-1 {
        fill: #000;
        fill-rule: evenodd;
      }
    </style>
  </defs>
  <g id="artboard-1">
    <path d="M25.724,21.582 C25.594,22.922 25.594,24.263 25.465,25.737 L25.465,26.943 L24.298,27.211 C23.649,27.345 23.260,27.345 22.742,27.345 C21.834,27.345 21.056,27.211 20.278,27.077 C19.630,26.943 18.982,26.943 18.204,26.809 C16.000,26.809 13.666,26.809 11.332,26.675 C11.203,26.675 10.943,26.675 10.684,26.675 C9.128,26.675 7.961,26.675 7.313,26.005 C5.887,24.664 6.406,22.520 6.665,20.911 C6.795,20.509 6.924,19.839 6.924,19.571 L6.795,19.571 C6.535,19.437 6.276,19.303 5.887,19.169 C5.887,19.169 2.646,17.293 2.516,15.952 L2.386,15.148 L3.035,14.612 C4.202,13.540 5.239,12.467 6.276,11.261 C6.406,10.993 6.795,10.591 6.924,10.323 C7.054,9.385 6.795,4.425 6.406,3.487 C6.406,3.621 6.665,3.889 7.054,4.023 L8.091,1.074 C10.814,2.147 13.796,2.683 16.778,2.951 C17.167,2.951 17.556,2.951 17.945,2.951 C20.019,2.951 22.742,3.085 24.557,5.498 C25.983,7.374 26.113,9.787 26.113,11.797 C26.113,15.014 25.983,18.365 25.724,21.582 ZM22.223,7.508 C21.316,6.302 20.019,6.302 17.945,6.168 C17.556,6.168 17.037,6.168 16.648,6.168 C14.315,6.034 12.110,5.632 9.906,5.095 C10.295,7.776 10.036,10.859 10.036,10.859 C9.906,12.065 9.128,13.003 8.739,13.406 C8.091,14.210 7.313,15.014 6.535,15.818 C6.924,16.086 7.313,16.354 7.572,16.488 C7.702,16.622 7.961,16.622 8.091,16.756 C8.684,17.002 9.705,17.372 10.173,18.767 C11.631,18.538 13.058,18.076 14.314,17.427 C15.092,17.025 16.000,17.293 16.389,18.097 C16.778,18.901 16.518,19.839 15.740,20.242 C14.012,21.194 12.072,21.806 10.024,22.029 C9.892,22.565 9.650,23.338 9.777,23.860 C10.165,23.860 10.684,23.860 10.943,23.860 C10.943,23.726 11.203,23.726 11.332,23.726 C11.462,23.726 11.462,23.726 11.592,23.726 C13.796,23.860 16.129,23.726 18.334,23.860 C19.241,23.860 20.019,23.994 20.797,24.128 C21.445,24.262 22.094,24.262 22.612,24.262 C22.612,23.324 22.742,22.386 22.742,21.448 C22.871,18.365 23.131,15.014 23.131,11.931 C23.131,10.457 23.001,8.714 22.223,7.508 ZM14.055,13.003 C12.981,13.003 12.110,12.103 12.110,10.993 C12.110,9.883 12.981,8.982 14.055,8.982 C15.129,8.982 16.000,9.883 16.000,10.993 C16.000,12.103 15.129,13.003 14.055,13.003 Z" class="cls-1"/>
  </g>
</svg>
