<?xml version="1.0" encoding="UTF-8"?>
<svg width="30px" height="30px" viewBox="0 0 30 30" version="1.1" xmlns="http://www.w3.org/2000/svg" xmlns:xlink="http://www.w3.org/1999/xlink">
    <g id="-" stroke="none" stroke-width="1" fill="none" fill-rule="evenodd">
        <g id="hosts">
            <path d="M10.3110486,24.2779106 C14.677525,20.5388994 15.6999757,16.5117053 15.6999757,16.5117053" id="Shape" stroke="#333333" stroke-width="3" stroke-linecap="round" stroke-linejoin="round" transform="translate(13.005512, 20.394808) rotate(-315.000000) translate(-13.005512, -20.394808) "></path>
            <circle id="Oval" fill="#333333" cx="13.8408528" cy="11.2796113" r="1.84671745"></circle>
            <path d="M8.48838973,3.58842773 C8.48838973,3.58842773 17.5645616,3.82709961 20.9090929,3.82709961 C24.2536241,3.82709961 24.6801866,6.76538086 24.6801866,9.75522461 C24.6801866,12.7450684 24.7231065,21.0631836 24.6801866,23.3012207 C24.6372667,25.5392578 23.0563096,26.4115723 21.537169,26.4115723 C20.0180284,26.4115723 12.013646,26.3700684 10.4487901,26.2831543 C8.88393424,26.1962402 7.56870314,25.4642611 7.68462996,22.5612305 C7.80055678,19.6581998 7.67632918,18.3578613 7.67632918,18.3578613 L3.32842879,17.3688965 C3.32842879,17.3688965 8.38165144,11.7238281 8.38165144,8.27851563 C8.38165144,4.83320313 8.48838973,3.58842773 8.48838973,3.58842773 Z" id="Path-2" stroke="#333333" stroke-width="3" stroke-linecap="round" stroke-linejoin="round"></path>
        </g>
    </g>
</svg>