<svg xmlns="http://www.w3.org/2000/svg" xmlns:xlink="http://www.w3.org/1999/xlink" preserveAspectRatio="xMidYMid" width="30" height="30" viewBox="0 0 30 30">
  <defs>
    <style>
      .cls-1 {
        fill: #000;
        fill-rule: evenodd;
      }
    </style>
  </defs>
  <g id="artboard-1">
    <path d="M23.110,25.165 C21.076,26.904 18.420,27.797 15.399,27.797 C14.023,27.797 12.572,27.611 11.068,27.238 C6.075,25.995 2.340,21.353 2.185,16.200 C2.095,13.166 2.285,9.311 4.578,6.394 C8.709,1.142 16.672,1.257 21.986,4.404 C25.636,6.566 27.814,10.486 27.812,14.889 C27.811,18.865 26.097,22.611 23.110,25.165 ZM20.338,7.420 C18.483,6.321 16.166,5.680 13.918,5.680 C11.292,5.680 8.758,6.553 7.156,8.592 C5.564,10.617 5.443,13.664 5.515,16.092 C5.622,19.651 8.341,22.992 11.842,23.862 C14.022,24.404 18.114,24.947 20.997,22.483 C23.177,20.618 24.480,17.779 24.481,14.888 C24.482,11.702 22.972,8.980 20.338,7.420 ZM13.001,12.689 L16.317,13.017 C16.073,15.698 16.239,18.390 16.809,21.018 L13.560,21.782 C12.912,18.796 12.724,15.737 13.001,12.689 ZM13.035,11.311 C12.958,10.140 13.071,8.973 13.370,7.843 L16.581,8.766 C16.382,9.517 16.308,10.294 16.359,11.073 L13.035,11.311 Z" class="cls-1"/>
  </g>
</svg>
