<svg xmlns="http://www.w3.org/2000/svg" xmlns:xlink="http://www.w3.org/1999/xlink" preserveAspectRatio="xMidYMid" width="30" height="30" viewBox="0 0 30 30">
  <defs>
    <style>
      .cls-1 {
        fill: #000;
        fill-rule: evenodd;
      }
    </style>
  </defs>
  <g id="artboard-1">
    <path d="M23.375,25.198 C21.286,26.920 18.543,27.714 15.539,27.714 C14.233,27.714 12.797,27.582 11.229,27.185 C6.267,26.125 2.479,21.491 2.349,16.459 C1.957,12.354 2.740,9.176 4.569,6.925 C8.748,1.761 16.715,2.026 21.939,4.939 C25.726,7.190 27.946,10.898 27.946,15.135 C27.946,18.975 26.248,22.683 23.375,25.198 ZM20.241,7.985 C18.412,6.793 16.192,6.263 13.972,6.263 C11.360,6.263 8.748,7.058 7.181,9.044 C5.875,10.633 5.483,13.016 5.744,16.327 C5.875,19.902 8.617,23.212 12.013,24.007 C14.755,24.669 18.543,24.934 21.155,22.683 C23.244,20.829 24.551,18.048 24.551,15.267 C24.551,12.222 22.983,9.574 20.241,7.985 ZM18.282,20.034 L18.151,20.167 C17.759,20.431 17.498,20.564 17.106,20.564 C16.715,20.564 16.323,20.431 15.800,20.167 L15.670,20.034 C15.278,19.637 14.233,18.445 14.755,17.254 C15.017,16.724 15.539,16.459 16.192,16.327 C16.584,16.327 16.976,16.327 17.368,16.592 C17.629,15.268 17.759,13.943 17.890,12.752 L13.972,12.752 C13.711,14.076 13.450,15.268 13.188,16.459 C13.058,16.989 12.927,17.518 12.535,18.048 C12.013,18.842 11.360,19.240 10.446,19.240 C9.531,19.240 8.748,18.578 8.356,17.651 C8.095,16.592 8.356,15.665 9.140,15.135 C9.531,14.738 10.054,14.605 10.576,14.738 C10.837,14.738 11.099,14.870 11.360,14.870 C11.621,13.811 11.752,12.752 12.013,11.427 L12.143,10.500 L19.980,10.500 L19.980,11.560 C19.980,13.546 19.718,15.797 19.065,18.445 C18.935,18.975 18.674,19.505 18.282,20.034 Z" class="cls-1"/>
  </g>
</svg>
