<?xml version="1.0" encoding="UTF-8"?>
<svg width="30px" height="30px" viewBox="0 0 30 30" version="1.1" xmlns="http://www.w3.org/2000/svg" xmlns:xlink="http://www.w3.org/1999/xlink">
    <defs>
        <path d="M17.117273,20.3277846 C19.6410691,18.8969744 21.344,16.1863576 21.344,13.078 C21.344,8.4785726 17.6154274,4.75 13.016,4.75 C8.4165726,4.75 4.688,8.4785726 4.688,13.078 C4.688,16.1710485 6.37419789,18.8702645 8.87749668,20.3065508 C8.87029558,19.3366497 8.88117479,18.5675323 8.99468115,17.9641893 C7.58607144,16.8035708 6.688,15.0456633 6.688,13.078 C6.688,9.5831421 9.5211421,6.75 13.016,6.75 C16.5108579,6.75 19.344,9.5831421 19.344,13.078 C19.344,15.0619806 18.4309718,16.8327121 17.00217,17.99294 C17.1109199,18.5949056 17.1213922,19.3612402 17.117273,20.3277846 Z" id="path-1"></path>
    </defs>
    <g id="-" stroke="none" stroke-width="1" fill="none" fill-rule="evenodd">
        <g id="itunes2">
            <g id="Group" transform="translate(2.000000, 1.000000)">
                <path d="M16.9695797,25.0220799 C21.9793293,23.3646993 25.594,18.6434754 25.594,13.078 C25.594,6.13136242 19.9626376,0.5 13.016,0.5 C6.06936242,0.5 0.438,6.13136242 0.438,13.078 C0.438,18.63615 4.04316152,23.3522695 9.04264571,25.0155195 C8.90520017,24.4279078 8.82526153,23.7593456 8.82334149,23 C8.82316445,22.929985 8.82289523,22.8607288 8.82255134,22.7922243 C5.06645187,21.1685936 2.438,17.4302507 2.438,13.078 C2.438,7.23593192 7.17393192,2.5 13.016,2.5 C18.8580681,2.5 23.594,7.23593192 23.594,13.078 C23.594,17.4420742 20.9512476,21.1889005 17.1788118,22.8054099 C17.1788314,22.8696071 17.1789264,22.9344684 17.1791112,23 C17.1812537,23.7596624 17.1045278,24.4307756 16.9695797,25.0220799 Z" id="Combined-Shape" fill="#FFFFFF"></path>
                <mask id="mask-2" fill="white">
                    <use xlink:href="#path-1"></use>
                </mask>
                <use id="Combined-Shape" fill="#FFFFFF" xlink:href="#path-1"></use>
            </g>
            <path d="M15,30 C15.785259,30.0494449 18.0096628,28.7712788 18,24 C17.9903372,19.2287212 18.3226768,18.0103824 15,18 C11.6773232,17.9896176 11.9913651,19.2442434 12,24 C12.0086349,28.7557566 14.214741,29.9505551 15,30 Z" id="Oval-3" fill="#FFFFFF"></path>
            <circle id="Oval-2" fill="#FFFFFF" cx="15" cy="14" r="3"></circle>
        </g>
    </g>
</svg>