<svg xmlns="http://www.w3.org/2000/svg" xmlns:xlink="http://www.w3.org/1999/xlink" preserveAspectRatio="xMidYMid" width="30" height="30" viewBox="0 0 30 30">
  <defs>
    <style>
      .cls-1 {
        fill: #000;
        fill-rule: evenodd;
      }
    </style>
  </defs>
  <g id="artboard-1">
    <path d="M5.412,17.174 L5.166,13.351 C10.825,12.978 18.084,12.854 24.358,12.978 L24.481,12.605 C25.097,12.854 25.712,12.978 26.450,12.978 L26.081,16.802 C19.437,16.677 11.563,16.802 5.412,17.174 ZM4.673,8.019 L4.427,4.195 C10.825,3.822 19.068,3.946 25.958,4.443 L25.712,8.267 C19.068,7.770 10.948,7.646 4.673,8.019 ZM27.065,22.143 L26.942,25.967 C20.545,25.842 10.579,25.842 4.673,26.091 L4.550,22.267 C10.825,22.018 20.791,22.018 27.065,22.143 Z" class="cls-1"/>
  </g>
</svg>
