<svg xmlns="http://www.w3.org/2000/svg" xmlns:xlink="http://www.w3.org/1999/xlink" preserveAspectRatio="xMidYMid" width="30" height="30" viewBox="0 0 30 30">
  <defs>
    <style>
      .cls-1 {
        fill: #000;
        fill-rule: evenodd;
      }
    </style>
  </defs>
  <g id="artboard-1">
    <path d="M16.858,8.093 C19.199,8.342 21.786,8.590 23.634,10.579 C24.989,11.945 25.605,13.685 25.481,15.673 C25.358,19.153 22.894,22.881 20.431,24.994 C18.583,26.485 16.735,27.231 14.887,27.231 C14.518,27.231 14.271,27.231 13.902,27.107 C11.068,26.734 8.358,24.621 5.771,20.769 C5.401,20.272 5.032,19.650 4.785,18.905 C3.554,15.549 4.046,11.946 6.141,9.709 C7.940,7.691 10.951,7.563 13.605,7.784 C13.515,6.999 13.435,6.236 13.372,5.483 C12.940,5.483 12.520,5.483 12.177,5.483 C11.438,5.483 10.822,4.862 10.822,4.117 C10.822,3.371 11.438,2.750 12.177,2.750 C12.916,2.750 13.655,2.750 14.518,2.874 C15.257,2.874 16.119,2.874 16.735,2.874 C17.474,2.874 18.090,3.495 18.090,4.241 C18.090,4.986 17.474,5.608 16.735,5.608 C16.532,5.608 16.323,5.602 16.117,5.599 C16.191,6.418 16.285,7.236 16.402,8.055 L16.858,8.093 ZM22.771,15.301 C22.771,14.058 22.402,13.064 21.662,12.318 C21.234,11.886 20.713,11.580 20.137,11.352 L20.316,11.548 L17.932,13.753 L18.213,13.685 L19.322,18.532 C19.322,18.681 19.352,19.016 19.280,19.390 L21.170,19.650 C21.155,19.710 21.152,19.772 21.140,19.832 C22.031,18.413 22.703,16.804 22.771,15.301 ZM8.111,11.448 C6.387,13.312 6.510,16.046 7.249,17.910 C7.315,18.076 7.372,18.221 7.427,18.354 C8.151,17.624 8.875,16.895 9.599,16.182 C8.623,15.801 7.702,15.332 6.880,14.804 L8.358,12.443 C9.440,13.098 10.618,13.646 11.807,14.025 C11.807,13.787 11.807,13.550 11.807,13.313 C11.807,12.241 11.941,11.261 12.162,10.353 C10.494,10.310 8.887,10.509 8.111,11.448 ZM13.039,19.277 C12.954,18.415 12.863,17.616 12.695,16.873 C11.623,18.089 10.425,19.304 9.220,20.520 L8.321,19.613 C9.240,20.897 10.136,21.909 11.012,22.679 C11.482,22.194 11.948,21.604 12.300,20.893 C12.423,20.644 12.546,20.520 12.669,20.396 C12.793,20.272 12.916,20.023 12.916,19.899 L13.039,19.650 C13.039,19.650 13.039,19.526 13.039,19.277 ZM13.313,24.123 C13.635,24.240 13.955,24.333 14.271,24.373 C15.749,24.621 17.105,24.000 18.706,22.757 C18.825,22.653 18.946,22.527 19.066,22.411 L17.967,22.260 C18.088,21.772 18.092,21.281 18.209,20.676 C18.130,20.711 18.053,20.747 17.967,20.769 L15.257,21.763 L15.126,21.416 C14.970,21.688 14.786,21.915 14.641,22.136 C14.641,22.260 14.517,22.260 14.517,22.384 C14.116,22.992 13.714,23.582 13.313,24.123 ZM14.483,14.141 C14.452,14.414 14.391,14.686 14.271,14.928 L14.148,15.052 C14.058,15.234 13.968,15.375 13.878,15.503 L15.010,15.176 C15.333,16.369 15.466,17.557 15.577,18.668 L16.612,18.283 L15.944,15.591 L15.866,15.663 L14.483,14.141 ZM15.010,10.579 C14.980,10.575 14.945,10.572 14.915,10.569 C14.663,11.352 14.536,12.243 14.526,13.194 L17.166,10.753 C16.941,10.734 16.715,10.717 16.488,10.703 L15.010,10.579 Z" class="cls-1"/>
  </g>
</svg>
