<svg xmlns="http://www.w3.org/2000/svg" xmlns:xlink="http://www.w3.org/1999/xlink" preserveAspectRatio="xMidYMid" width="30" height="30" viewBox="0 0 30 30">
  <defs>
    <style>
      .cls-1 {
        fill: #000;
        fill-rule: evenodd;
      }
    </style>
  </defs>
  <g id="artboard-1">
    <path d="M28.567,7.509 C28.567,9.033 27.872,22.057 27.733,23.720 C27.733,25.798 26.204,25.798 20.366,25.798 C18.559,25.798 16.613,25.659 14.667,25.521 L12.304,25.382 C9.107,25.105 6.188,24.828 3.130,25.105 L1.184,25.243 L1.184,23.027 C1.184,20.394 1.323,15.406 1.462,12.635 C1.462,11.943 1.462,11.250 1.601,10.557 C1.601,9.449 1.601,8.202 1.879,6.955 L2.157,5.431 L3.686,5.431 C5.354,5.431 7.022,5.431 8.551,5.292 C11.053,5.292 13.555,5.154 16.057,5.292 C16.474,5.292 17.030,5.292 17.447,5.292 C18.420,5.292 19.532,5.292 20.644,5.292 C21.339,5.292 22.034,5.431 22.729,5.431 C24.119,5.569 25.648,5.708 26.899,5.708 L28.706,5.708 L28.567,7.509 ZM5.771,21.503 C8.134,21.503 10.358,21.641 12.721,21.918 L14.945,22.057 C16.891,22.195 18.559,22.334 20.366,22.334 C22.034,22.334 23.424,22.334 24.397,22.195 C24.522,19.826 24.760,14.988 25.009,10.711 C23.083,12.045 20.948,13.291 18.420,14.437 L18.003,14.714 C17.447,15.268 16.613,15.545 15.501,15.545 C14.945,15.545 14.389,15.406 13.694,15.129 L12.721,14.714 C11.609,14.298 10.636,13.882 9.524,13.328 C8.167,12.600 6.745,11.872 5.349,11.144 C5.347,11.838 5.336,12.467 5.215,13.190 C5.076,15.407 4.937,19.009 4.937,21.780 C5.215,21.503 5.493,21.503 5.771,21.503 ZM20.366,9.033 C19.393,8.895 18.559,9.033 17.586,9.033 C17.030,9.033 16.613,9.033 16.057,9.033 C13.681,8.902 11.310,9.017 9.053,9.029 C9.777,9.400 10.501,9.771 11.192,10.142 C12.026,10.557 12.860,10.973 13.972,11.388 L14.945,11.804 C15.362,11.943 15.640,11.943 16.613,11.527 L17.030,11.250 C18.553,10.527 19.880,9.804 21.084,9.081 C20.845,9.059 20.605,9.033 20.366,9.033 Z" class="cls-1"/>
  </g>
</svg>
