<?xml version="1.0" encoding="UTF-8"?>
<svg width="30px" height="30px" viewBox="0 0 30 30" version="1.1" xmlns="http://www.w3.org/2000/svg" xmlns:xlink="http://www.w3.org/1999/xlink">
    <g id="-" stroke="none" stroke-width="1" fill="none" fill-rule="evenodd">
        <g id="netease2" fill="#FFFFFF">
            <path d="M18.8996127,2.01349711 C20.3400038,1.91018024 21.7595547,2.4033711 22.8256127,3.37749711 C23.3951361,3.73850179 23.6089992,4.46563656 23.3256127,5.07749711 C23.0663676,5.65791177 22.4555232,5.99794848 21.8256127,5.91249711 C21.0996127,5.73849711 20.7796127,5.17649711 19.9596127,5.02149711 C19.6030715,4.98082258 19.2419484,5.01870979 18.9016127,5.13249711 C17.8476127,5.43249711 17.7926127,5.82649711 18.0666127,6.80349711 C18.1195408,7.16854306 18.2225089,7.52455676 18.3726127,7.86149711 C18.9116127,8.73049711 21.0286127,8.89249711 21.9646127,9.36149711 C25.9147314,11.2938064 27.9536664,15.7440654 26.8376127,19.9974971 C25.9179576,23.7644572 23.082907,26.7689574 19.3756127,27.9054971 C16.6947756,28.7404597 13.8179113,28.7015879 11.1606127,27.7944971 C7.52084148,26.3684118 4.72521982,23.3671648 3.56061265,19.6354971 C1.68861265,13.9514971 4.83761265,8.57149711 8.09961265,6.18749711 C9.11913593,5.33563497 10.3185355,4.72601996 11.6076127,4.40449711 C12.162982,4.3215074 12.7134018,4.58256254 13.0005335,5.06513672 C13.2876651,5.5477109 13.2545034,6.15599708 12.9166127,6.60449711 C12.2032811,7.15002155 11.4156532,7.59081029 10.5776127,7.91349711 C9.42127597,8.59430611 8.42423132,9.51496978 7.65361265,10.6134971 C6.96147884,11.6909966 6.4544813,12.8766949 6.15361265,14.1214971 C4.96161265,19.2134971 8.35361265,23.3394971 11.4726127,24.8414971 C12.5528907,25.3778983 13.7467306,25.6454831 14.9526127,25.6214971 C15.6876725,25.6362794 16.4228543,25.598852 17.1526127,25.5094971 C20.7226127,24.7834971 23.2046127,22.8234971 24.0526127,19.3844971 C24.7252631,16.771657 23.7180754,14.0145155 21.5196127,12.4504971 C20.9693728,11.9252792 20.2466504,11.6184866 19.4866127,11.5874971 L19.4026127,11.6434971 C19.5436127,13.2374971 20.7856127,14.9144971 20.4336127,16.7434971 C19.9506127,19.2434971 17.5336127,21.8144971 14.2796127,20.9434971 C13.5472613,20.7909573 12.8617156,20.4663514 12.2796127,19.9964971 C10.0250378,17.8447269 9.62721142,14.3904499 11.3336127,11.7824971 C12.002539,10.7839172 12.9121794,9.96988362 13.9786127,9.41549711 C14.5096667,9.28388939 15.0161226,9.06780156 15.4786127,8.77549711 L15.5066127,8.71949711 L15.0896127,6.49249711 C14.6436127,4.45249711 16.5096127,2.81349711 17.7626127,2.28749711 L18.8996127,2.01349711 Z M16.1436127,11.7864971 C15.1036127,12.4154971 14.2606127,12.6434971 13.6646127,13.7354971 C12.7996127,15.3234971 13.3506127,17.7254971 15.0576127,18.1074971 C15.6367639,18.1836385 16.2217,18.0177879 16.6746963,17.6489952 C17.1276926,17.2802025 17.408721,16.7410553 17.4516127,16.1584971 C17.2016127,15.2304971 16.950946,14.3021638 16.6996127,13.3734971 C16.5516127,12.8448304 16.4032793,12.3158304 16.2546127,11.7864971 L16.1436127,11.7864971 Z" id="Shape"></path>
        </g>
    </g>
</svg>