<svg xmlns="http://www.w3.org/2000/svg" xmlns:xlink="http://www.w3.org/1999/xlink" preserveAspectRatio="xMidYMid" width="30" height="30" viewBox="0 0 30 30">
  <defs>
    <style>
      .cls-1 {
        fill: #fff;
        fill-rule: evenodd;
      }
    </style>
  </defs>
  <g id="artboard-1">
    <path d="M15.424,27.899 C14.617,27.899 13.797,27.807 12.973,27.621 C7.171,26.306 3.922,22.445 3.825,16.749 C3.730,11.209 6.647,6.839 11.437,5.346 L12.306,8.205 C8.772,9.306 6.705,12.481 6.777,16.697 C6.851,20.997 9.152,23.690 13.618,24.702 C17.062,25.484 20.321,24.043 22.335,20.851 C23.469,19.053 23.508,16.657 22.429,15.024 C21.570,13.722 20.185,13.011 18.739,12.696 C19.612,14.536 20.247,16.633 19.700,18.510 C19.306,19.859 18.388,20.895 16.969,21.590 C15.630,22.247 14.003,22.278 12.507,21.675 C10.943,21.045 9.724,19.827 9.163,18.333 C8.069,15.419 9.480,11.876 12.308,10.436 C12.803,10.184 13.339,9.987 13.946,9.837 C13.438,8.228 13.451,6.454 14.020,5.026 C14.636,3.481 15.850,2.396 17.440,1.972 C18.639,1.650 20.011,1.964 21.023,2.787 C21.932,3.526 22.428,4.577 22.385,5.669 L19.434,5.549 C19.442,5.358 19.255,5.185 19.174,5.119 C18.893,4.890 18.489,4.785 18.193,4.863 C17.497,5.049 17.028,5.469 16.759,6.145 C16.377,7.103 16.475,8.461 16.977,9.499 C20.315,9.541 23.301,10.963 24.884,13.361 C26.622,15.993 26.597,19.650 24.823,22.461 C22.626,25.943 19.164,27.898 15.424,27.899 ZM15.350,12.604 C14.639,12.714 14.091,12.875 13.635,13.108 C12.171,13.854 11.371,15.798 11.924,17.270 C12.187,17.972 12.813,18.580 13.598,18.896 C14.326,19.189 15.087,19.189 15.683,18.897 C16.546,18.475 16.772,17.990 16.868,17.662 C17.261,16.315 16.259,14.213 15.350,12.604 Z" class="cls-1"/>
  </g>
</svg>
