<svg xmlns="http://www.w3.org/2000/svg" xmlns:xlink="http://www.w3.org/1999/xlink" preserveAspectRatio="xMidYMid" width="30" height="30" viewBox="0 0 30 30">
  <defs>
    <style>
      .cls-1 {
        fill: #000;
        fill-rule: evenodd;
      }
    </style>
  </defs>
  <g id="artboard-1">
    <path d="M23.231,25.312 C21.170,27.076 18.479,27.982 15.418,27.982 C14.024,27.982 12.554,27.794 11.030,27.414 C5.971,26.154 2.187,21.444 2.030,16.216 C1.938,13.138 2.131,9.226 4.454,6.268 C8.640,0.939 16.708,1.056 22.091,4.248 C25.790,6.442 27.997,10.419 27.995,14.886 C27.994,18.920 26.257,22.720 23.231,25.312 ZM20.423,7.308 C18.543,6.193 16.196,5.543 13.918,5.543 C11.257,5.543 8.690,6.429 7.066,8.498 C5.453,10.552 5.331,13.643 5.404,16.107 C5.512,19.717 8.267,23.107 11.814,23.990 C14.024,24.540 18.168,25.091 21.090,22.591 C23.299,20.699 24.619,17.818 24.620,14.885 C24.621,11.652 23.091,8.891 20.423,7.308 ZM20.622,15.840 C18.583,17.455 16.440,18.984 14.253,20.383 C13.653,20.766 13.172,21.074 12.840,21.426 L11.635,20.194 L9.954,20.348 C9.891,19.605 9.788,18.680 9.675,17.682 C9.399,15.223 9.086,12.436 9.162,10.538 L10.848,10.612 L11.623,9.048 C12.595,9.573 13.767,9.965 15.009,10.381 C16.971,11.039 19.000,11.719 20.638,13.050 L19.601,14.438 L20.622,15.840 ZM13.976,13.733 C13.528,13.583 13.076,13.420 12.625,13.259 C12.719,14.487 12.866,15.823 13.001,17.032 C14.192,16.255 15.340,15.454 16.457,14.632 C15.685,14.307 14.843,14.024 13.976,13.733 Z" class="cls-1"/>
  </g>
</svg>
