<?xml version="1.0" encoding="UTF-8"?>
<svg width="30px" height="30px" viewBox="0 0 30 30" version="1.1" xmlns="http://www.w3.org/2000/svg" xmlns:xlink="http://www.w3.org/1999/xlink">
    <g id="-" stroke="none" stroke-width="1" fill="none" fill-rule="evenodd" stroke-linecap="round" stroke-linejoin="round">
        <g id="quote" stroke-width="3" stroke="#333333">
            <g id="Path-3" transform="translate(3.414551, 1.254883)">
                <path d="M9.44875586,1.25521301 C9.44875586,1.25521301 0.309697971,6.24638528 0.394462726,12.1853692 C0.463926361,17.0522908 4.71763401,17.7916504 6.54703972,17.4027982 C8.13099491,17.0661182 10.8127599,16.0962365 11.0956727,12.3854402 C11.4498712,7.73963114 4.30277207,6.02234468 4.30277207,6.02234468" transform="translate(5.751146, 9.373429) rotate(12.000000) translate(-5.751146, -9.373429) "></path>
            </g>
            <g id="Path-3" transform="translate(16.820312, 9.254883)">
                <path d="M9.44875586,1.25521301 C9.44875586,1.25521301 0.309697971,6.24638528 0.394462726,12.1853692 C0.463926361,17.0522908 4.71763401,17.7916504 6.54703972,17.4027982 C8.13099491,17.0661182 10.8127599,16.0962365 11.0956727,12.3854402 C11.4498712,7.73963114 4.30277207,6.02234468 4.30277207,6.02234468" transform="translate(5.751146, 9.373429) rotate(12.000000) translate(-5.751146, -9.373429) "></path>
            </g>
        </g>
    </g>
</svg>