<svg xmlns="http://www.w3.org/2000/svg" xmlns:xlink="http://www.w3.org/1999/xlink" preserveAspectRatio="xMidYMid" width="30" height="30" viewBox="0 0 30 30">
  <defs>
    <style>
      .cls-1 {
        fill: #000;
        fill-rule: evenodd;
      }
    </style>
  </defs>
  <g id="artboard-1">
    <path d="M24.541,15.157 C24.150,15.157 23.890,15.157 23.368,15.157 C22.716,15.287 21.934,15.418 21.283,15.809 C21.934,15.940 22.586,16.201 23.107,16.592 C24.411,17.375 25.193,18.680 25.454,20.115 C25.584,20.898 25.454,21.681 25.323,22.333 L25.193,22.594 C24.411,25.204 22.325,27.161 19.718,27.422 C19.458,27.683 19.197,27.683 18.936,27.683 C16.460,27.683 14.113,25.986 13.462,23.638 L13.462,23.507 C13.331,22.855 13.201,21.681 13.592,20.506 C13.592,20.376 13.592,20.376 13.592,20.245 L13.462,20.115 C13.592,19.854 13.722,19.724 13.853,19.463 C15.156,15.548 18.806,12.547 22.847,11.895 C23.759,11.764 24.280,11.764 24.671,11.764 C25.062,11.764 25.193,11.764 25.714,11.634 L26.627,14.896 C25.584,15.157 25.062,15.157 24.541,15.157 ZM19.588,19.202 C18.545,19.462 17.633,20.115 16.851,21.028 C16.851,21.159 16.851,21.289 16.720,21.289 L16.720,21.420 C16.590,21.942 16.590,22.464 16.720,22.855 C16.981,23.768 18.284,24.421 19.197,24.290 C20.370,24.160 21.413,23.116 21.804,21.942 L21.804,21.811 C21.934,21.289 21.934,21.028 21.934,20.767 C21.804,20.115 21.413,19.854 21.152,19.593 C20.761,19.332 20.109,19.202 19.588,19.202 ZM14.244,6.154 C13.592,6.284 12.810,6.415 12.288,6.806 C14.244,7.328 16.068,8.763 16.329,10.982 C16.459,11.764 16.329,12.808 15.938,13.722 C15.156,16.070 13.201,18.027 10.724,18.549 C10.594,18.680 10.203,18.680 9.942,18.680 C7.335,18.680 4.989,16.983 4.337,14.635 L4.337,14.504 C4.207,13.461 4.337,12.547 4.468,11.634 C4.468,11.503 4.598,11.242 4.598,11.112 L4.337,10.982 C4.468,10.720 4.598,10.460 4.859,10.199 C6.292,6.415 9.812,3.544 13.722,2.892 C14.635,2.762 15.156,2.762 15.547,2.762 C15.938,2.762 16.068,2.762 16.590,2.631 L17.502,5.893 C16.460,6.154 15.938,6.154 15.417,6.154 C15.026,6.154 14.765,6.154 14.244,6.154 ZM7.987,11.764 C7.987,11.895 7.857,12.156 7.857,12.286 C7.726,12.808 7.596,13.330 7.726,13.852 C7.987,14.765 9.290,15.418 10.203,15.287 C11.246,15.026 12.419,13.982 12.679,12.678 L12.810,12.417 C12.940,12.156 12.940,11.895 12.940,11.634 C12.810,10.851 11.637,10.068 10.594,10.068 C9.551,10.329 8.639,10.982 7.987,11.764 Z" class="cls-1"/>
  </g>
</svg>
