<svg xmlns="http://www.w3.org/2000/svg" xmlns:xlink="http://www.w3.org/1999/xlink" preserveAspectRatio="xMidYMid" width="30" height="30" viewBox="0 0 30 30">
  <defs>
    <style>
      .cls-1 {
        fill: #000;
        fill-rule: evenodd;
      }
    </style>
  </defs>
  <g id="artboard-1">
    <path d="M28.324,22.525 C27.413,23.839 20.276,28.658 20.125,28.658 L18.910,29.534 L17.847,28.658 C17.240,28.220 16.329,27.051 14.810,24.861 C13.899,23.693 12.988,22.525 12.381,21.649 L11.318,20.335 L13.596,18.436 C14.068,18.047 14.581,17.628 15.113,17.202 C14.745,16.791 14.381,16.388 14.017,15.984 C12.672,17.128 11.513,18.068 11.166,18.290 L9.496,19.167 L8.585,17.706 C8.281,17.268 5.245,13.326 3.423,11.136 L2.360,9.821 L3.726,8.653 C4.334,8.215 5.093,7.485 5.852,6.609 C7.826,4.711 9.952,2.667 11.926,1.790 L13.292,1.206 L14.203,2.374 C14.962,3.397 15.873,4.565 16.784,5.587 C17.695,6.755 18.606,7.777 19.366,8.945 L20.125,9.967 L19.366,10.989 C19.090,11.413 18.052,12.416 16.801,13.547 C17.232,14.018 17.664,14.488 18.097,14.959 C19.064,14.294 20.018,13.714 20.884,13.326 L22.250,12.742 L23.161,13.910 C23.921,14.932 24.831,16.100 25.742,17.122 C26.653,18.290 27.564,19.313 28.324,20.481 L29.083,21.503 L28.324,22.525 ZM13.748,7.923 C13.292,7.193 12.685,6.609 12.229,5.879 C11.014,6.755 9.800,8.069 8.585,9.091 C7.978,9.529 7.674,9.967 7.370,10.259 C8.433,11.574 9.648,13.034 10.559,14.202 C10.858,13.946 11.206,13.651 11.572,13.340 C10.796,12.481 10.076,11.640 9.496,10.843 L12.381,8.653 C12.959,9.368 13.633,10.130 14.367,10.932 C14.761,10.581 15.122,10.252 15.418,9.967 C14.810,9.237 14.355,8.507 13.748,7.923 ZM22.706,19.459 C22.098,18.728 21.643,18.144 21.036,17.414 C20.882,17.503 20.715,17.620 20.555,17.720 C21.215,18.494 21.849,19.268 22.402,20.043 L19.365,22.233 C18.793,21.483 18.158,20.714 17.503,19.941 C17.090,20.277 16.692,20.608 16.329,20.919 C16.784,21.503 17.392,22.233 17.847,22.963 C18.303,23.693 18.910,24.423 19.365,25.007 C20.732,23.985 22.858,22.525 24.224,21.503 C23.769,20.773 23.161,20.189 22.706,19.459 Z" class="cls-1"/>
  </g>
</svg>
