<svg xmlns="http://www.w3.org/2000/svg" xmlns:xlink="http://www.w3.org/1999/xlink" preserveAspectRatio="xMidYMid" width="30" height="30" viewBox="0 0 30 30">
  <defs>
    <style>
      .cls-1 {
        fill: #000;
        fill-rule: evenodd;
      }
    </style>
  </defs>
  <g id="artboard-1">
    <path d="M26.620,22.498 C26.529,26.896 23.210,27.139 23.210,22.656 C23.210,8.207 17.821,8.412 4.957,7.874 C2.608,7.775 1.395,3.749 9.960,3.949 C20.857,4.204 26.951,6.638 26.620,22.498 ZM8.146,19.300 C10.078,19.300 11.644,20.866 11.644,22.798 C11.644,24.729 10.078,26.295 8.146,26.295 C6.215,26.295 4.649,24.729 4.649,22.798 C4.649,20.866 6.215,19.300 8.146,19.300 ZM8.843,11.311 C15.823,11.311 19.073,15.726 19.073,23.026 C19.073,25.862 15.508,25.906 15.508,23.026 C15.508,18.491 12.468,15.185 8.264,15.185 C5.867,15.185 5.083,11.311 8.843,11.311 Z" class="cls-1"/>
  </g>
</svg>
