<svg xmlns="http://www.w3.org/2000/svg" width="30" height="30" viewBox="0 0 30 30">
  <defs>
    <style>
      .cls-1 {
        fill: #fff;
        fill-rule: evenodd;
      }
    </style>
  </defs>
  <g id="search">
    <path class="cls-1" d="M939.149,336.318c6.072,0.013,10.837,4.624,10.452,9.439-0.456,4.9-5.455,10.888-10.742,11.059a10.048,10.048,0,0,1-10.2-10.159,10.349,10.349,0,0,1,10.485-10.339h0Zm6.756,19.735s3.387,5.854,4.726,5.74,4.007-3.5,4.007-3.5-3.293-4.61-5.473-5.172C948.112,354.221,945.841,356.059,945.905,356.053Zm-7.038-16.318c3.248,0.166,6.956,4.834,6.874,7.434a6.178,6.178,0,0,1-6.754,6.03,6.293,6.293,0,0,1-6.6-6.412c-0.244-2.977,2.8-6.262,6.479-7.052h0Z" transform="translate(-926 -334)"/>
  </g>
</svg>
