<svg xmlns="http://www.w3.org/2000/svg" xmlns:xlink="http://www.w3.org/1999/xlink" preserveAspectRatio="xMidYMid" width="30" height="30" viewBox="0 0 30 30">
  <defs>
    <style>
      .cls-1 {
        fill: #fff;
        fill-rule: evenodd;
      }
    </style>
  </defs>
  <g id="artboard-1">
    <path d="M27.513,12.459 C27.513,6.537 25.244,5.570 18.511,5.288 C17.282,5.236 16.575,2.645 21.058,2.750 C26.762,2.883 29.987,4.158 29.778,12.459 C29.720,14.759 27.513,14.795 27.513,12.459 ZM23.911,12.011 C23.911,10.080 23.312,9.172 21.522,9.172 C20.502,9.172 20.168,7.350 21.769,7.350 C24.740,7.350 25.653,8.903 25.653,12.011 C25.653,13.219 23.911,13.237 23.911,12.011 ZM21.251,10.376 C23.515,13.209 18.774,16.272 18.774,16.272 C18.774,16.272 26.185,14.989 25.869,19.041 C25.554,23.094 19.582,27.163 12.557,27.163 C5.504,27.163 0.843,25.476 0.050,19.568 C-0.664,14.245 7.605,6.458 12.289,6.458 C15.766,6.458 15.177,10.039 13.460,12.093 C13.460,12.093 19.620,8.336 21.251,10.376 ZM11.041,13.048 C6.122,12.308 2.941,17.356 3.228,20.551 C3.516,23.746 7.764,25.061 12.674,24.264 C17.500,23.482 19.244,22.476 18.899,19.353 C18.625,16.861 15.995,13.792 11.041,13.048 ZM9.250,22.655 C7.207,22.805 5.445,21.478 5.314,19.692 C5.184,17.906 6.734,16.337 8.778,16.188 C10.821,16.039 12.583,17.365 12.714,19.151 C12.844,20.937 11.294,22.506 9.250,22.655 Z" class="cls-1"/>
  </g>
</svg>
