<?xml version="1.0" encoding="UTF-8"?>
<svg width="45px" height="45px" viewBox="0 0 45 45" version="1.1" xmlns="http://www.w3.org/2000/svg" xmlns:xlink="http://www.w3.org/1999/xlink">
    <!-- Generator: Sketch 44 (41411) - http://www.bohemiancoding.com/sketch -->
    <title>avatar</title>
    <desc>Created with Sketch.</desc>
    <defs></defs>
    <g id="Page-1" stroke="none" stroke-width="1" fill="none" fill-rule="evenodd">
        <g id="avatar">
            <polygon id="Shape" fill="#F5F5F5" fill-rule="nonzero" points="4.50000002e-08 22.5 4.50000002e-08 0 22.5 0 45 0 45 22.5 45 45 22.5 45 4.50000003e-08 45"></polygon>
            <path d="M17.9814914,24.6463551 C16.3899367,23.0834407 15.3172942,21.0405966 14.9309988,19.9107582 L14.8251387,19.8455546 C14.5979523,19.7364828 14.403688,19.5692144 14.2620857,19.360746 C13.2840304,17.6293963 13.026284,16.2424756 13.4949835,15.2368046 C13.6768689,14.8437323 13.9744887,14.5156011 14.3480011,14.2963373 C14.3423055,13.1073385 14.4832371,11.9221736 14.767606,10.7676672 C14.7821809,10.7124359 16.2373738,5.58128931 22.4984619,5.58128931 C28.75955,5.58128931 30.2155099,10.7124359 30.2293178,10.7638317 C30.5144486,11.920819 30.6556406,13.1085841 30.6496898,14.3001728 C31.0233899,14.5192057 31.3210701,14.8474035 31.5027074,15.2406401 C31.9729411,16.2463111 31.7151947,17.6332318 30.7356052,19.3638144 C30.5938859,19.5723694 30.3996706,19.7398602 30.1725522,19.8493901 L30.0666921,19.9145938 C29.6822709,21.0409869 28.6107783,23.0819244 27.0202963,24.6444708 C28.1059419,25.4959521 29.3446427,26.1345288 30.6711686,26.5247133 C34.0763353,27.5986564 38.6428946,29.8754157 38.9919261,37.2073785 C39.0097355,37.5819989 38.7540598,37.9145721 38.3874496,37.9936582 C33.1486871,38.9704268 27.828957,39.4471502 22.4999961,39.4173999 C17.1713419,39.4467987 11.8518753,38.9705896 6.61330971,37.9944253 C6.2463929,37.9156618 5.99032559,37.5830014 6.00806608,37.2081456 C6.35709758,29.8761828 10.924424,27.5994235 14.3295907,26.5254804 C15.6578562,26.1393153 16.8975521,25.50076 17.9814914,24.6463551 Z" id="user.svg" fill="#FFFFFF"></path>
        </g>
    </g>
</svg>