<?xml version="1.0" encoding="UTF-8"?>
<svg width="45px" height="45px" viewBox="0 0 45 45" version="1.1" xmlns="http://www.w3.org/2000/svg" xmlns:xlink="http://www.w3.org/1999/xlink">
    <!-- Generator: Sketch 44 (41411) - http://www.bohemiancoding.com/sketch -->
    <title>avatar</title>
    <desc>Created with Sketch.</desc>
    <defs></defs>
    <g id="Page-1" stroke="none" stroke-width="1" fill="none" fill-rule="evenodd">
        <g id="avatar">
            <polygon id="Shape" fill-opacity="0.19608" fill="#000000" fill-rule="nonzero" points="4.50000002e-08 22.5 4.50000002e-08 0 22.5 0 45 0 45 22.5 45 45 22.5 45 4.50000003e-08 45"></polygon>
            <path d="M19.1807142,25.6460453 C17.8953847,26.7198365 16.401295,27.5176982 14.7913862,27.9883443 C11.4966823,29.0285349 8.09381694,30.8749499 7.58599529,36.6205453 C17.457784,38.3025459 27.5429753,38.3025459 37.414764,36.6205453 C36.9069424,30.8741828 33.5025428,29.0262336 30.2093731,27.9875772 C28.59959,27.516722 27.1055783,26.7188939 25.8201531,25.6453097 C24.8425539,26.3217265 23.7272126,26.7671176 22.4999961,26.7671176 C21.273111,26.7671176 20.1581109,26.3221075 19.1807142,25.6460453 Z M17.9814914,24.6463551 C16.3899367,23.0834407 15.3172942,21.0405966 14.9309988,19.9107582 L14.8251387,19.8455546 C14.5979523,19.7364828 14.403688,19.5692144 14.2620857,19.360746 C13.2840304,17.6293963 13.026284,16.2424756 13.4949835,15.2368046 C13.6768689,14.8437323 13.9744887,14.5156011 14.3480011,14.2963373 C14.3423055,13.1073385 14.4832371,11.9221736 14.767606,10.7676672 C14.7821809,10.7124359 16.2373738,5.58128931 22.4984619,5.58128931 C28.75955,5.58128931 30.2155099,10.7124359 30.2293178,10.7638317 C30.5144486,11.920819 30.6556406,13.1085841 30.6496898,14.3001728 C31.0233899,14.5192057 31.3210701,14.8474035 31.5027074,15.2406401 C31.9729411,16.2463111 31.7151947,17.6332318 30.7356052,19.3638144 C30.5938859,19.5723694 30.3996706,19.7398602 30.1725522,19.8493901 L30.0666921,19.9145938 C29.6822709,21.0409869 28.6107783,23.0819244 27.0202963,24.6444708 C28.1059419,25.4959521 29.3446427,26.1345288 30.6711686,26.5247133 C34.0763353,27.5986564 38.6428946,29.8754157 38.9919261,37.2073785 C39.0097355,37.5819989 38.7540598,37.9145721 38.3874496,37.9936582 C33.1486871,38.9704268 27.828957,39.4471502 22.4999961,39.4173999 C17.1713419,39.4467987 11.8518753,38.9705896 6.61330971,37.9944253 C6.2463929,37.9156618 5.99032559,37.5830014 6.00806608,37.2081456 C6.35709758,29.8761828 10.924424,27.5994235 14.3295907,26.5254804 C15.6578562,26.1393153 16.8975521,25.50076 17.9814914,24.6463551 Z M15.5247359,18.4747429 L15.6344315,18.543015 C15.9499047,18.6783419 16.1997141,18.9320072 16.3301932,19.2495162 C16.6945667,20.5175361 19.1638687,25.2329133 22.4999961,25.2329133 C25.8361235,25.2329133 28.3061926,20.516769 28.6705661,19.2495162 C28.8012272,18.9319479 29.0509452,18.6781 29.3663278,18.5422479 L29.4760234,18.4739758 C30.3620265,16.8576915 30.2247152,16.140451 30.1226906,15.9034164 C30.0472475,15.7303704 29.8984088,15.6001014 29.7168935,15.5482481 C29.3520061,15.4619095 29.0977389,15.1314262 29.1078144,14.7565986 C29.1510778,13.5453883 29.0303151,12.3338912 28.7488105,11.1550538 C28.7043186,10.9962637 27.5598021,7.11089108 22.4999961,7.11089108 C17.4010678,7.11089108 16.2626882,11.1182329 16.2511816,11.1588893 C15.96951,12.3361281 15.8489968,13.5461628 15.8929449,14.7558315 C15.9140157,15.1410928 15.6456505,15.4820512 15.2662224,15.5520836 C15.0940323,15.6089898 14.9544283,15.736867 14.8826713,15.9034164 C14.7783454,16.1412181 14.6394999,16.8584586 15.5247359,18.4747429 Z" id="user.svg" fill="#FFFFFF"></path>
        </g>
    </g>
</svg>